<svg width="262" height="511" viewBox="0 0 262 511" fill="none" xmlns="http://www.w3.org/2000/svg">
    <path d="M155.605 18.651C158.682 27.8395 158.693 34.3663 158.661 36.3041C158.64 37.6562 158.597 39.5195 158.214 41.9471C157.628 45.5884 156.255 50.156 152.933 56.1398C150.026 61.3675 148.77 67.0212 148.812 72.9304C148.844 77.5619 152.251 79.8617 155.807 81.8314C160.769 84.5784 166.348 85.2917 171.789 86.4736C178.315 87.8896 184.533 90.051 189.985 94.1076C195.841 98.4623 199.056 104.286 200.451 111.356C201.473 116.541 201.59 121.737 201.303 126.965C201.239 128.232 201.377 129.328 202.101 130.468C207.01 138.24 210.864 146.428 212.056 155.68C212.131 156.255 212.504 156.83 212.844 157.32C220.713 168.798 225.078 181.553 226.76 195.309C227.899 204.604 230.721 213.431 234.756 221.874C235.544 223.524 236.651 224.631 238.483 225.345C244.019 227.474 249.407 229.912 254.006 233.809C256.7 236.088 258.489 239.207 261.534 241.23C263.493 242.529 261.14 246.959 258.18 247.661C255.252 248.353 252.803 247.246 250.546 245.5C250.088 245.138 249.928 244.382 248.917 244.446C248.981 246.469 249.811 248.311 250.386 250.174C251.994 255.317 253.996 260.342 255.231 265.602C255.657 267.422 255.848 269.318 255.295 271.128C254.794 272.746 253.527 274.056 251.856 274.056C250.003 274.056 249.705 274.886 249.3 276.387C248.385 279.784 245.978 280.529 243.029 278.549C242.337 278.091 241.858 277.431 240.719 277.953C238.078 279.145 235.832 278.378 234.49 275.908C233.66 274.375 233.159 272.98 230.817 273.183C229.241 273.321 227.974 271.884 227.303 270.318C222.661 259.437 217.231 248.769 217.902 236.397C218.093 232.745 215.868 229.891 214.282 226.857C209.661 218.041 202.921 210.652 197.789 202.187C191.88 192.424 187.099 182.234 186.216 170.629C186.109 169.181 185.598 167.946 184.842 166.689C182.01 161.994 179.519 157.107 177.048 151.666C174.291 159.087 171.342 166.04 170.511 173.642C169.67 181.276 170.17 188.846 171.512 196.395C171.831 198.205 172.044 200.164 171.704 201.942C171.139 204.87 171.863 207.436 172.779 210.141C174.089 214.006 174.685 218.073 174.93 222.14C175.973 239.878 178.827 257.308 182.894 274.588C185.8 286.939 186.514 299.46 183.384 311.97C182.713 314.643 181.829 317.23 180.669 319.721C176.442 328.729 175.473 338.386 174.802 348.149C174.121 358.009 175.664 367.783 175.483 377.621C175.185 393.773 173.62 409.797 171.491 425.799C169.968 437.234 169.851 448.542 174.344 459.54C176.154 463.959 179.146 467.387 182.159 470.879C187.706 477.321 193.072 483.89 196.512 491.769C198.311 495.879 197.363 497.636 194.286 500.819C190.07 505.185 184.533 506.835 179.338 509.199C175.068 511.136 170.99 509.273 167.892 504.631C165.209 500.606 163.75 496.039 162.047 491.588C160.045 486.382 156.883 482.368 152.23 479.056C147.322 475.564 145.948 470.209 147.109 464.182C149.302 452.747 150.207 441.184 149.419 429.547C149.014 423.691 147.002 418.133 145.905 412.395C143.414 399.298 141.721 386.16 142.413 372.787C142.488 371.286 142.477 369.731 142.871 368.305C144.798 361.458 143.19 354.815 141.838 348.16C139.347 335.99 138.41 323.608 136.664 311.331C135.333 301.962 132.714 292.773 132.628 283.223C132.628 282.243 132.245 281.019 131.159 281.083C130.105 281.136 129.913 282.36 129.807 283.361C127.603 303.783 123.908 324.002 121.257 344.359C120.661 348.916 119.724 353.441 118.67 357.913C117.893 361.224 119.256 364.205 119.575 367.336C120.863 380.048 119.799 392.601 117.861 405.186C116.423 414.545 113.006 423.542 112.825 433.114C112.622 443.41 113.283 453.663 115.242 463.788C116.658 471.124 114.422 476.757 107.97 480.813C104.062 483.273 102.156 487.34 100.495 491.503C98.8875 495.517 97.6099 499.669 95.342 503.417C94.2667 505.195 92.989 506.771 91.4345 508.081C89.4435 509.752 87.0479 510.498 84.4925 509.603C77.9339 507.325 71.5988 504.62 66.6372 499.51C64.7314 497.551 64.6888 495.251 65.5725 492.845C67.638 487.202 71.109 482.378 74.7397 477.694C77.9871 473.509 81.7456 469.698 84.78 465.375C90.1462 457.72 91.8923 448.925 91.9456 439.694C92.0095 429.803 90.061 420.135 89.0815 410.361C87.314 392.793 86.5368 375.236 87.6867 357.561C88.432 346.158 87.495 334.681 83.4598 323.863C81.2345 317.879 78.8495 312.034 77.8381 305.688C76.06 294.445 77.4228 283.372 80.0207 272.49C83.875 256.328 86.4197 240.017 87.4311 223.439C87.7825 217.775 88.6023 212.164 90.7744 206.84C90.966 206.361 91.2748 205.775 91.1577 205.339C89.5393 199.078 91.6794 193.009 92.2011 186.887C93.2445 174.717 90.3698 163.431 85.3976 151.922C82.789 157.575 80.1165 162.548 77.1247 167.339C76.2623 168.723 76.3049 170.224 76.1664 171.694C75.1017 182.916 70.3957 192.754 64.6568 202.198C59.4717 210.726 52.7746 218.243 47.994 227.059C45.8859 230.935 44.3527 234.789 44.4272 239.346C44.5337 245.787 42.9792 251.984 40.4452 257.904C38.7097 261.971 36.9742 266.038 35.228 270.095C34.3017 272.235 32.7579 273.63 30.309 273.225C29.074 273.023 29.0314 273.789 28.6907 274.439C26.5612 278.549 25.7946 278.879 21.3122 277.718C20.5988 277.537 20.0984 277.825 19.4809 278.346C16.6274 280.806 13.9975 279.901 13.0074 276.142C12.6773 274.897 12.6241 274.066 10.8247 274.066C8.32261 274.066 6.88523 271.926 6.82135 269.03C6.72552 264.473 8.81238 260.449 10.0581 256.232C11.1867 252.367 12.7944 248.641 13.6355 244.233C11.8894 245.393 10.5798 246.501 9.07854 247.203C4.93679 249.152 0.709866 247.054 0.433039 243.03C0.39045 242.412 0.188164 241.528 0.709876 241.273C4.02115 239.623 5.61822 236.226 8.29066 233.937C13.018 229.891 18.5865 227.442 24.2827 225.217C25.6243 224.695 26.5186 223.961 27.1788 222.715C31.576 214.325 34.3869 205.435 35.5368 196.044C37.2403 182.117 41.4886 169.138 49.4953 157.512C49.9531 156.841 50.3364 156.202 50.4535 155.371C51.7312 146.353 55.4364 138.283 60.185 130.649C60.941 129.446 61.1965 128.306 61.1113 126.922C60.8345 122.142 61.0474 117.393 61.7502 112.623C63.4324 101.231 70.0763 94.0118 80.3295 89.6677C84.9078 87.7299 89.7203 86.5162 94.618 85.6857C99.8138 84.802 104.775 83.3007 109.162 80.2769C112.516 77.9665 113.911 74.9107 113.57 70.7264C113.144 65.5199 111.792 60.7713 109.45 56.0759C106.99 51.1356 102.582 40.7972 104.232 29.1172C104.733 25.5823 104.637 27.2327 107.118 19.3005C107.427 18.321 107.799 15.7869 108.853 12.5076C109.492 10.5379 109.801 9.55833 110.174 8.8982C111.909 5.82117 114.986 3.70238 118.83 2.4886C120.576 1.93495 128.05 -0.971733 138.314 0.934112C142.509 1.71136 145.192 2.24372 147.95 4.26668C151.74 7.0456 153.039 10.9212 155.626 18.6723L155.605 18.651ZM146.321 5.8744C144.149 4.2028 142.136 3.78756 138.25 3.03161C133.044 2.02012 126.251 2.1266 118.489 4.78839C114.539 6.14058 111.472 8.8982 110.834 12.9122C110.024 18.0015 108.14 22.6863 106.766 27.5627C104.562 35.3565 106.5 42.8627 109.439 50.0922C112.197 56.8744 115.433 63.3798 115.572 71.0352C115.657 75.7199 114.188 79.127 110.589 81.7675C106.213 84.9723 101.166 86.6972 95.917 87.5809C90.7318 88.4539 85.6424 89.5826 80.8512 91.6907C73.1959 95.0552 67.308 100.134 64.7953 108.588C62.964 114.763 63.0172 120.992 63.1343 127.284C63.1556 128.211 63.3792 129.105 62.7723 130.074C61.2285 132.576 59.8763 135.184 58.4815 137.782C56.1817 142.094 54.1907 146.545 53.4241 151.389C52.7959 155.393 51.0817 158.811 48.9842 162.218C43.1495 171.672 39.4869 181.979 38.1028 193.02C36.7293 203.912 33.9397 214.346 28.7119 224.067C27.8602 225.654 26.7209 226.569 24.9961 227.165C20.3859 228.763 16.0418 230.903 11.964 233.628C8.80174 235.736 6.89589 239.037 4.05309 241.433C3.37167 241.997 2.1366 242.306 2.63701 243.637C3.11614 244.904 3.99985 245.606 5.41593 245.745C7.76896 245.958 9.51509 244.893 11.0163 243.264C12.1769 242.018 13.3587 240.826 15.1049 240.485C15.6904 240.368 16.3932 240.038 16.8829 240.517C17.4366 241.06 16.8617 241.667 16.6806 242.21C14.4554 249.109 12.1982 255.998 9.96228 262.897C9.28086 265.016 8.78043 267.167 8.8869 269.413C8.94014 270.499 9.13178 271.543 10.4733 271.841C11.7297 272.118 12.475 271.522 13.0819 270.521C14.2744 268.53 15.0197 266.368 15.6905 264.164C16.7445 260.693 17.8944 257.265 19.0017 253.815C19.1614 253.315 19.3424 252.687 19.9919 252.804C20.833 252.964 20.7266 253.666 20.5669 254.294C20.4604 254.72 20.3007 255.136 20.1729 255.561C18.5439 260.981 16.8404 266.379 15.3178 271.82C14.7642 273.811 13.9869 276.707 16.4996 277.335C18.9272 277.942 19.6938 275.067 20.3007 273.044C21.8552 267.88 23.3032 262.674 24.847 257.51C25.0387 256.871 24.8896 255.561 26.0608 255.923C27.1149 256.254 26.4548 257.276 26.2631 257.978C25.0919 262.333 23.8249 266.667 22.707 271.042C22.2385 272.874 21.2589 275.568 23.3458 276.292C25.7095 277.111 26.5506 274.332 27.1681 272.459C28.7333 267.667 30.1174 262.812 31.5974 258C31.789 257.382 31.7251 256.264 32.6834 256.53C33.6629 256.807 32.9921 257.702 32.8324 258.33C31.938 261.652 30.9692 264.963 30.1493 268.317C29.9151 269.286 29.5744 270.649 30.7988 271.17C32.0978 271.724 32.726 270.414 33.1518 269.541C34.3337 267.071 35.2706 264.494 36.3992 262.003C39.7424 254.614 42.532 247.086 42.3404 238.813C42.2445 234.693 43.5328 231.062 45.428 227.453C49.9637 218.786 56.352 211.386 61.5798 203.199C68.2023 192.807 73.4301 181.851 74.2606 169.266C74.3138 168.457 74.6013 167.765 75.0166 167.041C78.8176 160.397 82.6612 153.764 85.142 146.194C87.2927 149.803 88.2829 153.583 89.6777 157.192C93.7343 167.68 95.3633 178.487 94.0005 189.73C93.3723 194.947 91.4452 200.154 93.3404 205.498C93.4894 205.914 93.2019 206.542 92.9996 207.021C90.7531 212.313 89.7203 217.913 89.4222 223.567C88.4852 241.145 85.3763 258.362 81.4368 275.482C78.6898 287.439 77.9445 299.481 81.0961 311.534C82.5441 317.081 85.2698 322.202 86.7391 327.707C89.6777 338.748 90.3698 350.077 89.55 361.448C88.794 371.903 88.8792 382.337 89.6138 392.782C90.4976 405.335 92.1266 417.814 93.5001 430.314C94.5861 440.173 94.1389 449.936 90.3804 459.349C87.5909 466.344 82.3099 471.518 77.7209 477.215C73.8241 482.048 70.236 487.084 67.7339 492.802C66.9566 494.569 66.2965 496.529 68.032 497.955C70.3211 499.85 72.3228 502.044 74.9633 503.62C77.2311 504.961 79.8184 505.099 82.0117 506.335C86.3771 508.805 89.1666 508.208 92.3076 504.205C95.2142 500.489 96.6197 496.103 98.1955 491.791C100.25 486.19 103.061 481.26 108.3 477.917C112.825 475.032 114.347 470.581 113.357 465.439C109.843 447.19 109.843 429.174 114.443 410.968C118.031 396.764 119.032 382.125 117.414 367.421C117.084 364.386 115.902 361.469 116.573 358.264C117.861 352.11 118.968 345.924 119.958 339.717C121.949 327.302 122.727 314.707 125.25 302.377C126.442 296.564 127.188 290.697 127.603 284.341C124.451 286.396 121.257 286.875 117.946 286.736C116.828 286.694 115.295 286.843 115.455 285.161C115.614 283.489 117.02 284.266 117.989 284.341C122.844 284.745 126.858 283.34 129.562 279.039C130.393 277.718 131.244 277.75 132.245 278.932C135.514 282.765 139.453 285.118 144.724 284.288C145.735 284.128 146.842 283.808 146.874 285.31C146.906 286.641 145.767 286.683 144.766 286.736C141.348 286.917 138.08 286.374 134.683 284.405C135.035 287.684 135.322 290.569 135.663 293.444C136.515 300.748 138.357 307.882 139.24 315.186C140.752 327.664 142.083 340.175 144.734 352.493C145.341 355.326 146.523 358.243 146.001 361.107C143.073 376.886 144.426 392.516 147.343 408.114C148.589 414.811 150.516 421.402 151.336 428.142C152.709 439.481 151.431 450.788 149.579 462.01C148.897 466.131 148.003 470.187 150.324 474.148C151.229 475.703 152.155 477.119 153.731 478.056C159.246 481.346 162.451 486.318 164.432 492.323C165.869 496.678 167.455 501.032 170.469 504.652C172.119 506.633 174.078 508.475 176.772 507.751C179.945 506.899 182.968 505.451 186.045 504.248C188.739 503.194 190.709 501.181 192.849 499.339C195.681 496.901 196.054 495.9 194.531 492.525C191.401 485.604 187.11 479.408 181.914 473.957C172.939 464.544 168.616 453.439 168.371 440.524C168.201 431.783 169.83 423.233 170.799 414.62C172.768 396.903 174.248 379.186 172.917 361.32C172.129 350.769 172.917 340.26 175.004 329.868C176.026 324.789 178.475 320.243 180.136 315.409C184.693 302.154 184.033 288.685 180.945 275.291C177.56 260.598 174.632 245.851 173.514 230.796C173.013 224.078 172.79 217.327 170.799 210.833C169.872 207.798 168.754 204.923 169.745 201.612C170.245 199.951 169.776 198.099 169.425 196.353C167.136 184.768 167.2 173.28 171.065 161.994C172.875 156.724 174.525 151.379 177.219 146.087C179.529 152.848 182.585 158.821 186.003 164.624C186.833 166.04 188.026 167.339 188.132 169.117C188.899 181.808 194.169 192.828 200.951 203.252C206.296 211.471 212.567 219.074 217.135 227.815C218.753 230.913 220.17 234.022 220.02 237.61C219.52 249.152 224.822 259.032 229.039 269.222C229.433 270.18 230.157 271.639 231.53 271.117C232.882 270.606 232.424 269.126 232.158 268.051C231.349 264.793 230.433 261.556 229.55 258.308C229.379 257.68 228.709 256.797 229.688 256.52C230.668 256.243 230.583 257.371 230.764 257.978C232.137 262.418 233.489 266.858 234.809 271.309C235.299 272.938 235.895 274.492 237.077 275.759C237.588 276.313 238.259 276.643 238.983 276.441C239.792 276.217 239.899 275.397 239.931 274.705C240.005 272.916 239.654 271.181 239.196 269.467C238.142 265.538 237.067 261.609 236.045 257.67C235.885 257.052 235.374 256.179 236.385 255.892C237.248 255.647 237.301 256.562 237.439 257.095C238.93 262.716 241.006 268.189 242.007 273.949C242.316 275.738 244.743 278.038 245.893 277.516C247.842 276.622 247.831 274.726 247.426 272.948C246.905 270.617 246.244 268.317 245.542 266.038C244.371 262.237 243.114 258.458 241.911 254.656C241.709 254.007 241.357 253.134 242.326 252.857C243.146 252.623 243.231 253.496 243.423 254.05C244.371 256.722 245.393 259.363 246.213 262.067C247.096 264.942 247.639 267.912 249.29 270.51C249.918 271.5 250.621 272.128 251.877 271.873C253.229 271.596 253.431 270.563 253.474 269.456C253.57 266.762 252.856 264.207 252.026 261.673C249.843 255.029 247.746 248.375 245.542 241.741C245.095 240.389 245.531 240.176 246.713 240.357C248.672 240.655 250.067 241.805 251.345 243.221C252.963 245.01 254.911 246.107 257.467 245.67C258.659 245.468 259.319 244.712 259.745 243.679C260.033 242.998 259.777 242.444 259.202 242.082C257.062 240.709 255.816 238.483 254.091 236.727C249.364 231.935 243.338 229.38 237.194 227.059C236.034 226.622 234.969 226.239 234.256 225.015C229.262 216.486 226.196 207.202 224.971 197.524C223.279 184.13 219.573 171.598 212.28 160.173C211.364 158.736 210.14 157.469 209.884 155.531C208.734 146.96 205.285 139.252 200.632 132.054C199.642 130.532 199.109 129.02 199.216 127.114C199.397 123.675 199.482 120.183 199.173 116.754C198.492 109.173 196.362 102.199 190.208 97.0143C184.406 92.1166 177.56 89.6464 170.277 88.3049C163.793 87.1124 157.415 85.7283 151.921 81.8314C148.993 79.7552 146.587 77.0189 146.811 73.303C147.141 67.8836 147.13 62.3471 150.303 57.4387C151.825 55.0963 152.847 52.3813 153.827 49.7408C155.062 46.3869 157.617 38.1141 155.861 27.978C155.403 25.3587 154.743 23.389 153.433 19.4602C150.984 12.1456 149.685 8.42973 146.353 5.8744H146.321Z" fill="#626262"/>
<path d="M162.674 206.339C162.706 210.268 160.215 213.696 156.776 215.027C146.725 218.892 139.336 225.611 134.97 235.534C134.619 236.343 134.268 237.174 133.81 237.919C132.223 240.517 129.902 240.506 128.529 237.802C126.612 234.022 124.887 230.157 122.151 226.824C117.775 221.48 112.356 217.636 105.957 215.198C99.1852 212.621 97.8542 205.69 103.039 200.76C109.662 194.489 114.049 186.748 116.742 178.06C118.073 173.748 119.191 169.394 120.096 164.954C120.895 161.025 123.439 158.448 127.571 157.586C134.161 156.212 139.069 158.108 141.657 163.101C142.455 164.645 142.572 166.327 142.913 167.956C145.043 178.209 148.471 187.898 155.179 196.139C156.733 198.056 158.522 199.802 160.311 201.505C161.823 202.943 162.429 204.71 162.664 206.35L162.674 206.339Z" fill="#7A7C8A"/>
<path d="M168.552 325.908C168.19 334.745 167.839 343.582 167.445 352.419C167.403 353.431 167.637 354.761 166.37 355.177C164.996 355.624 164.326 354.357 163.623 353.516C162.611 352.291 161.834 350.875 160.791 349.672C158.821 347.404 156.851 347.479 155.137 349.917C154.072 351.429 153.295 353.132 152.358 354.73C152.049 355.251 151.773 355.943 151.049 355.901C150.218 355.858 149.845 355.145 149.707 354.453C149.175 351.77 148.664 349.076 148.216 346.382C145.523 329.9 142.659 313.44 139.39 297.054C139.113 295.67 138.826 294.285 138.602 292.891C138.176 290.208 139.102 289.111 141.924 289.185C145.384 289.271 148.802 289.324 152.166 288.217C155.659 287.056 158.81 285.342 161.589 282.946C162.409 282.244 163.218 281.349 164.357 281.711C165.688 282.137 165.603 283.521 165.784 284.618C166.998 291.964 167.53 299.375 167.818 306.796C168.073 313.152 167.871 319.53 167.871 325.897C168.095 325.897 168.318 325.897 168.542 325.897L168.552 325.908Z" fill="#33B175"/>
<path d="M123.791 292.933C123.025 296.798 122.035 301.291 121.236 305.816C118.5 321.404 115.838 336.991 113.134 352.589C113.027 353.196 112.942 353.814 112.729 354.399C112.495 355.06 112.218 355.805 111.387 355.879C110.482 355.954 110.28 355.123 109.939 354.538C109.109 353.079 108.449 351.514 107.48 350.151C105.5 347.351 103.413 347.33 101.273 349.981C100.165 351.354 99.1751 352.824 98.0678 354.208C97.578 354.815 96.9924 355.507 96.0768 355.251C95.0014 354.942 95.0227 353.952 94.9482 353.079C94.3626 346.819 94.4051 340.526 94.2667 334.244C93.9047 317.613 94.3306 301.014 96.5239 284.501C96.673 283.351 96.7049 282.052 97.9506 281.573C98.8344 281.232 99.6116 281.945 100.282 282.542C105.861 287.471 112.324 289.75 119.799 289.228C123.067 288.994 123.887 289.771 123.781 292.955L123.791 292.933Z" fill="#33B175"/>
<path d="M171.182 250.589C171.491 264.526 162.281 274.353 150.399 279.4C142.946 282.562 134.694 277.303 133.768 269.211C132.937 261.981 134.066 255.242 138.101 248.928C142.722 241.709 146.8 234.128 153.582 228.57C154.764 227.602 156.063 226.878 157.479 226.335C160.758 225.078 164.283 226.228 165.88 229.369C169.212 235.906 171.352 242.784 171.171 250.589H171.182Z" fill="#7A7C8A"/>
<path d="M129.029 264.707C129.072 273.715 125.068 278.474 118.297 280.092C114.4 281.029 110.929 279.379 107.746 277.431C92.5201 268.125 88.1334 254.997 93.095 238.047C93.9361 235.161 94.9795 232.35 96.3956 229.678C98.2163 226.228 101.751 224.919 105.339 226.516C109.971 228.571 113.09 232.329 116.029 236.215C120.075 241.582 123.546 247.352 126.687 253.293C128.678 257.063 128.752 261.289 129.029 264.718V264.707Z" fill="#7A7C8A"/>
<path d="M128.54 111.963C128.54 118.873 128.561 125.783 128.529 132.682C128.529 134.003 128.37 135.334 128.178 136.633C127.997 137.868 127.752 139.294 126.261 139.486C124.877 139.667 124.079 138.528 123.408 137.452C119.426 131.075 115.518 124.654 111.441 118.341C106.884 111.292 102.145 104.35 97.514 97.3444C97.0774 96.6843 96.7261 95.9603 96.4599 95.215C95.5549 92.7129 95.9915 91.7653 98.5681 91.1797C106.596 89.3697 114.549 87.3467 122.322 84.5678C126.272 83.1517 128.604 85.0044 128.636 89.3591C128.7 96.8866 128.657 104.414 128.657 111.942C128.614 111.942 128.582 111.942 128.54 111.942V111.963Z" fill="#7A7C8A"/>
<path d="M133.778 111.803C133.778 104.552 133.799 97.291 133.778 90.0403C133.757 85.2384 136.472 82.9599 140.805 84.7486C148.162 87.7937 155.999 89.3908 163.739 91.2221C166.454 91.8716 166.923 92.7766 165.826 95.3958C163.792 100.262 160.279 104.201 157.383 108.513C151.325 117.531 145.479 126.688 139.889 136.004C138.942 137.58 138.079 139.848 135.982 139.369C133.863 138.89 133.98 136.356 133.948 134.62C133.799 127.018 133.884 119.405 133.884 111.792C133.852 111.792 133.821 111.792 133.778 111.792V111.803Z" fill="#7A7C8A"/>
<path d="M166.646 131.33C169.02 131.224 171.107 131.629 173.247 131.224C175.451 130.809 176.005 132.31 175.941 134.141C175.824 137.91 174.44 141.413 173.396 144.959C169.947 156.777 164.655 167.935 160.801 179.615C160.311 181.095 159.566 182.565 158.416 183.725C157.021 185.131 155.648 185.205 154.359 183.629C153.167 182.171 152.464 180.446 151.91 178.678C149.696 171.566 148.429 164.251 147.492 156.873C147.119 153.977 146.406 151.145 146.406 148.196C146.406 138.826 150.803 133.47 160.055 131.916C162.313 131.533 164.602 131.117 166.657 131.341L166.646 131.33Z" fill="#33B175"/>
<path d="M116.008 148.131C114.709 158.832 113.56 169.575 110.099 179.87C109.418 181.883 108.747 184.534 106.107 184.63C103.434 184.726 102.55 182.085 101.88 180.105C97.0777 165.955 90.6362 152.379 87.0374 137.814C86.8245 136.952 86.5902 136.089 86.4731 135.216C86.0153 131.852 87.0161 131.032 90.3913 131.298C93.99 131.575 97.6207 131.138 101.219 131.724C107.256 132.693 112.58 134.684 114.88 141.061C115.7 143.329 116.019 145.693 115.998 148.121L116.008 148.131Z" fill="#33B175"/>
<path d="M208.148 160.716C209.064 160.993 209.468 161.76 209.958 162.516C216.911 173.12 220.424 184.832 221.574 197.385C222.319 205.573 224.758 213.313 228.303 220.724C228.537 221.203 228.867 221.65 228.995 222.151C229.219 223.034 230.156 223.993 229.251 224.844C228.41 225.632 227.398 225.025 226.525 224.631C218.423 221.022 212.556 215.091 208.766 207.138C203.165 195.394 203.261 182.99 204.826 170.469C205.156 167.85 205.295 165.177 206.178 162.643C206.519 161.675 206.987 160.876 208.148 160.716Z" fill="#7A7C8A"/>
<path d="M58.4171 182.873C58.1828 193.361 56.6709 203.529 50.5062 212.419C46.801 217.764 41.9352 221.778 36.0474 224.535C35.121 224.972 33.9924 225.739 33.0981 224.823C32.1824 223.886 33.0768 222.789 33.5133 221.906C37.6018 213.654 40.3381 204.977 41.1154 195.799C41.8075 187.675 43.7027 179.924 47.0459 172.503C48.611 169.021 50.4104 165.678 52.6037 162.548C53.0935 161.845 53.3916 160.791 54.5096 160.993C55.5956 161.185 56.0002 162.154 56.2983 163.101C57.2778 166.253 57.4269 169.553 57.7783 172.79C58.1403 176.123 58.6194 179.477 58.4171 182.862V182.873Z" fill="#7A7C8A"/>
<path d="M195.947 121.94C195.925 127.082 195.201 127.604 190.729 125.123C182.904 120.8 175.802 115.636 171.639 107.353C170.021 104.148 169.169 100.72 168.956 97.1636C168.732 93.3199 170.489 91.9465 174.162 92.8302C188.589 96.3012 196.01 106.224 195.936 121.94H195.947Z" fill="#33B175"/>
<path d="M66.6584 120.406C66.85 112.155 68.9155 104.638 75.4316 98.9946C79.5521 95.4172 84.4711 93.4794 89.7627 92.5105C91.988 92.1059 93.3295 93.522 93.4254 96.2902C93.5531 99.9848 92.6162 103.552 91.0511 106.82C86.6751 115.998 78.6897 121.375 70.0868 125.953C67.5527 127.305 66.7542 126.677 66.669 123.866C66.637 122.717 66.669 121.567 66.669 120.417L66.6584 120.406Z" fill="#33B175"/>
<path d="M40.3814 240.048C40.4346 242.252 39.9449 245.031 39.3486 247.81C38.6246 251.196 37.4427 252.346 33.9718 252.484C30.586 252.633 27.3066 251.845 24.0592 250.951C23.2075 250.717 22.3876 250.397 21.5359 250.142C18.9025 249.354 17.8555 247.587 18.3949 244.84C18.5653 243.977 18.7356 243.104 18.8634 242.231C19.1615 240.102 18.9805 238.356 16.1697 238.196C15.254 238.143 14.2213 237.6 14.0509 236.471C13.8699 235.225 14.7855 234.565 15.7012 233.98C19.4597 231.584 23.5162 229.838 27.8177 228.762C35.4091 226.867 40.5943 231.307 40.3814 240.038V240.048Z" fill="#7A7C8A"/>
<path d="M72.9612 141.125C69.3199 144.053 66.7752 147.109 64.1986 150.101C62.2927 152.305 60.5572 154.658 58.7046 156.915C58.3213 157.384 57.8422 157.937 57.1502 157.682C56.4049 157.405 56.5645 156.617 56.6284 156.063C57.97 144.756 62.4737 131.766 76.0382 127.252C79.2963 126.166 81.66 127.284 82.3946 130.702C83.5871 136.196 82.714 141.658 81.5215 146.992C80.3823 152.103 78.1996 156.883 75.1758 161.216C74.6541 161.962 74.2282 163.346 73.1422 162.909C72.1307 162.505 72.6312 161.153 72.7483 160.269C73.4723 155.158 73.2061 150.026 73.1742 144.894C73.1742 143.862 73.057 142.818 72.9506 141.125H72.9612Z" fill="#7A7C8A"/>
<path d="M222.022 239.58C222.022 239.058 222.022 238.877 222.022 238.696C222.022 230.988 227.835 226.771 235.363 228.986C239.207 230.115 242.859 231.648 246.276 233.745C247.277 234.352 248.374 234.948 248.31 236.301C248.235 237.759 246.936 238.153 245.85 238.302C243.593 238.6 243.125 239.921 243.465 241.837C243.742 243.402 244.094 244.957 244.424 246.501C244.711 247.821 244.679 249.013 243.114 249.514C238.642 250.93 234.17 252.42 229.422 252.506C225.11 252.58 223.821 251.398 223.012 247.118C222.522 244.509 221.979 241.912 222.033 239.58H222.022Z" fill="#7A7C8A"/>
<path d="M189.41 141.669C189.048 147.259 188.994 152.71 189.41 158.172C189.537 159.79 190.538 162.239 189.144 162.772C187.855 163.251 186.897 160.77 186.067 159.375C180.817 150.581 178.635 141.094 179.966 130.915C180.423 127.423 183.075 126.156 186.429 127.295C194.531 130.063 199.737 135.706 202.708 143.585C204.113 147.312 205.37 151.092 205.689 155.106C205.753 155.989 206.307 157.267 205.125 157.682C204.209 158.002 203.624 156.937 203.091 156.255C199.812 151.975 196.394 147.812 192.646 143.937C191.795 143.064 190.996 142.137 189.399 141.679L189.41 141.669Z" fill="#7A7C8A"/>
<path d="M172.097 314.047C171.948 302.26 170.926 291.017 168.211 279.965C166.997 275.035 168.349 270.713 171.139 266.688C171.703 265.879 172.331 265.038 173.471 265.24C174.61 265.442 174.929 266.486 175.217 267.391C176.857 272.555 177.762 277.878 178.432 283.223C179.742 293.593 179.135 303.879 176.399 313.983C175.728 316.453 174.78 318.838 173.907 321.244C173.684 321.851 173.535 322.831 172.587 322.575C171.799 322.362 171.799 321.393 171.81 320.754C171.842 318.369 172.012 315.984 172.108 314.047H172.097Z" fill="#7A7C8A"/>
<path d="M83.3325 293.338C83.5668 285.161 84.5356 277.09 86.6331 269.201C87.0377 267.689 87.1868 265.474 89.1991 265.293C91.0624 265.123 91.5202 267.188 92.3294 268.498C94.6505 272.235 95.0018 276.185 94.0329 280.476C91.1369 293.295 89.6995 306.263 90.6258 319.423C90.6578 319.86 90.6897 320.318 90.6258 320.744C90.5087 321.5 90.5939 322.554 89.5718 322.618C88.72 322.671 88.688 321.691 88.4325 321.052C84.7699 312.162 83.5242 302.835 83.3325 293.327V293.338Z" fill="#7A7C8A"/>
<path d="M98.6743 125.506C95.4908 125.506 92.3073 125.517 89.1238 125.506C88.0591 125.506 86.7814 125.464 86.4726 124.25C86.1851 123.153 87.4628 122.993 88.1336 122.493C92.1369 119.522 93.8405 115.21 94.9478 110.579C95.2992 109.12 95.4802 107.619 95.8102 106.16C95.9699 105.447 95.7037 104.403 96.8217 104.254C97.6628 104.148 97.9716 104.893 98.4081 105.458C101.538 109.418 104.115 113.741 106.809 117.989C107.799 119.554 108.757 121.151 109.662 122.77C110.855 124.899 110.45 125.602 107.959 125.645C104.86 125.698 101.773 125.655 98.6743 125.655V125.517V125.506Z" fill="#7A7C8A"/>
<path d="M163.643 125.634C160.46 125.634 157.276 125.655 154.082 125.634C152.389 125.623 151.388 124.984 152.464 123.196C156.052 117.212 159.576 111.175 163.835 105.628C164.314 105.01 164.676 104.105 165.624 104.286C166.773 104.499 166.624 105.606 166.72 106.437C167.327 111.313 168.456 115.998 171.586 119.969C172.416 121.024 173.353 121.95 174.503 122.642C175.174 123.047 176.154 123.334 175.887 124.303C175.632 125.282 174.61 125.463 173.715 125.495C171.235 125.559 168.764 125.549 166.284 125.559C165.4 125.559 164.516 125.559 163.633 125.559V125.644L163.643 125.634Z" fill="#7A7C8A"/>
<path d="M191.039 170.533C191.22 169.33 190.229 166.7 192.22 165.657C194.371 164.539 196.043 166.796 197.661 168.063C200.632 170.363 201.696 173.301 201.175 177.156C200.376 182.98 201.281 188.793 202.058 194.574C202.186 195.49 202.921 196.736 201.856 197.204C200.674 197.737 200.003 196.395 199.503 195.554C195.042 188.048 191.422 180.233 191.039 170.533Z" fill="#7A7C8A"/>
<path d="M71.5026 170.117C71.0235 178.316 68.5321 185.62 64.6033 192.466C63.8154 193.839 62.9849 195.202 62.0905 196.512C61.7604 197.001 61.26 197.576 60.568 197.321C59.8227 197.044 60.0143 196.32 60.1101 195.713C61.1962 188.612 61.8137 181.521 61.1323 174.312C60.8235 171.065 65.998 165.624 69.1389 165.337C70.3634 165.22 70.9703 165.901 71.1513 166.976C71.3429 168.105 71.4068 169.266 71.5026 170.128V170.117Z" fill="#7A7C8A"/>
<path d="M129.669 64.9875C129.775 68.714 129.221 72.3873 128.966 76.0925C128.7 79.9361 127.678 80.9583 123.908 81.661C122.258 81.9698 120.608 82.2679 118.947 82.4489C118.042 82.5447 116.913 83.0238 116.296 81.9485C115.774 81.0541 116.477 80.2236 116.924 79.5103C119.554 75.1875 121.502 70.556 122.993 65.7435C123.695 63.4756 124.111 61.1119 124.845 58.8441C125.239 57.6197 125.857 56.1823 127.571 56.4698C129.307 56.7572 129.669 58.1627 129.679 59.6852C129.69 61.4526 129.679 63.2201 129.679 64.9875H129.669Z" fill="#7A7C8A"/>
<path d="M132.746 64.8701C132.746 62.4425 132.671 60.6751 132.778 58.9077C132.852 57.6832 133.459 56.6824 134.8 56.4482C136.078 56.2246 136.781 57.0444 137.217 58.0772C137.601 58.9609 137.952 59.8766 138.165 60.8135C139.634 67.2231 141.817 73.3452 145.192 79.0308C145.746 79.9571 146.864 81.0538 145.98 82.1398C145.181 83.1087 143.808 82.5018 142.701 82.3421C140.869 82.0866 139.038 81.7778 137.217 81.4371C135.152 81.0432 133.959 79.7548 133.693 77.6893C133.118 73.2175 132.809 68.7244 132.746 64.8701Z" fill="#7A7C8A"/>

</svg>
