<svg width="262" height="511" viewBox="0 0 262 511" fill="none" xmlns="http://www.w3.org/2000/svg">
<path d="M115.012 5.15815C117.695 3.11427 119.696 1.92201 124.178 1.09168C126.754 0.623291 135.419 -0.143164 144.851 3.33782C151.057 5.62654 154.357 10.6085 154.836 17.0169C154.953 18.6243 155.688 20.2211 155.943 21.8711C156.752 27.247 157.604 31.9521 156.571 37.1896C156.422 37.956 155.922 38.7012 156.348 39.4996C158.881 44.2899 157.05 48.8035 155.422 53.2958C154.974 54.5413 154.123 55.8506 152.782 56.1061C149.62 56.7023 149.599 59.2465 149.311 61.482C148.928 64.4626 149.098 67.5178 148.641 70.4878C147.768 76.1511 150.578 79.5894 155.198 81.9846C159.073 83.9966 163.193 85.2633 167.515 85.9766C174.359 87.105 181.002 88.9572 187.017 92.5553C196.001 97.9205 200.014 106.224 200.781 116.337C201.004 119.243 201.302 122.213 200.972 125.087C200.632 128.132 201.622 130.484 203.08 132.996C207.147 139.98 210.202 147.399 211.724 155.383C212.31 158.47 214.566 160.631 216.035 163.208C221.858 173.459 225.031 184.477 226.51 196.091C227.66 205.139 230.641 213.666 234.015 222.097C235.442 225.663 238.614 226.036 241.371 227.089C247.503 229.442 253.017 232.561 257.147 237.82C257.85 238.714 258.669 239.587 259.617 240.204C261.118 241.194 262.342 242.184 261.618 244.228C260.884 246.315 259.574 247.709 257.296 248.039C254.656 248.422 252.463 247.432 250.409 245.9C249.738 245.399 249.312 244.494 248.024 244.473C249.429 248.614 250.803 252.638 252.155 256.673C253.326 260.196 254.667 263.677 255.125 267.392C255.699 272.012 254.773 273.364 250.249 274.375C249.142 274.62 249.429 275.344 249.259 275.919C247.992 280.209 246.055 280.933 242.297 278.506C241.754 278.155 241.403 277.707 240.477 278.165C237.805 279.475 235.708 278.804 234.26 276.249C233.376 274.684 232.706 273.396 230.438 273.46C228.671 273.513 227.458 271.895 226.819 270.309C223.242 261.399 218.569 252.83 217.813 242.983C217.813 242.898 217.76 242.802 217.771 242.717C219.027 232.508 212.938 225.078 207.86 217.413C203.57 210.941 198.63 204.916 194.862 198.071C190.029 189.288 186.58 180.091 185.729 170.031C185.654 169.116 185.377 168.328 184.898 167.551C182.269 163.346 180.044 158.918 177.872 154.468C177.585 153.882 177.574 152.903 176.648 153.009C175.967 153.084 175.924 153.936 175.701 154.468C170.559 166.72 168.398 179.388 170.591 192.631C171.283 196.825 172.017 201.03 171.049 205.288C170.953 205.693 170.985 206.204 171.145 206.587C174.338 214.177 174.477 222.267 175.158 230.294C176.435 245.495 179.309 260.42 182.652 275.312C185.995 290.205 186.75 305.236 180.448 319.671C174.902 332.371 173.731 345.709 174.498 359.207C175.658 379.827 174.572 400.276 171.805 420.694C170.421 430.881 169.324 441.111 171.368 451.363C172.869 458.846 176.35 465.287 181.513 470.875C186.697 476.485 191.221 482.575 194.937 489.26C198.418 495.53 197.768 498.457 192.041 502.726C189.007 504.983 185.963 507.208 182.067 507.782C181.513 507.868 181.023 508.4 180.502 508.719C176.244 511.38 171.166 510.284 168.92 505.877C167.898 503.865 166.727 502.194 165.066 500.703C163.501 499.309 162.703 497.339 162.469 495.296C161.702 488.589 158.381 483.703 152.75 479.977C147.203 476.315 145.564 470.801 146.82 464.382C149.003 453.194 149.684 441.91 149.194 430.541C148.917 424.292 146.714 418.426 145.564 412.348C143.169 399.68 141.572 386.981 142.115 374.068C142.264 370.438 142.445 366.776 143.371 363.274C144.255 359.963 143.18 356.918 142.552 353.863C139.986 341.536 138.485 329.06 137.069 316.562C136.058 307.589 133.62 298.838 132.737 289.864C132.066 283.094 131.725 276.26 132.332 269.436C132.513 267.414 132.566 265.37 132.513 263.336C132.502 262.581 132.449 261.559 131.225 261.505C130.022 261.452 129.426 262.07 129.309 263.219C129.256 263.752 129.149 264.284 129.213 264.805C130.959 279.432 128.883 293.792 126.062 308.078C124.189 317.563 123.901 327.261 122.251 336.778C121.229 342.643 120.303 348.519 119.164 354.353C118.429 358.089 118.121 361.677 118.813 365.562C120.91 377.379 119.877 389.216 118.195 401.011C116.939 409.783 114.906 418.395 113.054 427.049C112.181 431.148 112.383 435.342 112.479 439.504C112.681 448.105 113.618 456.632 115.098 465.116C116.183 471.323 114.288 476.571 108.902 480.115C103.537 483.639 100.301 488.397 99.4384 494.763C99.0339 497.797 97.7991 500.395 95.191 502.108C93.69 503.088 93.6687 504.834 92.7852 506.143C90.2942 509.858 86.6748 511.317 82.768 509.326C80.4154 508.134 77.9245 507.335 75.5399 506.324C71.8248 504.749 69.1634 501.97 66.236 499.511C64.2241 497.829 64.2879 495.455 65.1715 493.145C67.407 487.29 71.1328 482.34 74.8054 477.358C78.3183 472.589 82.8851 468.682 85.8445 463.488C91.38 453.758 92.4765 443.198 91.2948 432.372C89.3255 414.232 86.9197 396.135 86.6109 377.858C86.4619 369.171 87.75 360.527 87.4413 351.83C87.1219 342.516 86.4832 333.244 83.2896 324.365C81.7674 320.139 79.7661 316.115 78.6696 311.687C76.1999 301.68 76.3596 291.663 77.999 281.614C79.9364 269.777 83.279 258.205 84.9077 246.293C85.77 239.97 86.4193 233.626 86.8345 227.27C87.2922 220.362 87.9629 213.506 90.5177 206.981C90.6774 206.576 90.9116 206.086 90.8158 205.703C89.5916 200.53 90.901 195.495 91.5823 190.417C93.1471 178.813 91.4119 167.657 86.9729 156.874C86.4087 155.5 85.9084 154.095 85.1525 152.105C82.2783 157.96 79.6277 163.25 76.4767 168.264C76.1361 168.818 76.168 169.637 76.1148 170.329C75.1461 181.911 70.6431 192.216 64.6499 201.956C58.7311 211.59 51.173 220.149 46.0314 230.304C45.0946 232.157 44.243 234.03 44.3175 236.085C44.6795 246.091 41.6775 255.267 37.611 264.209C36.6956 266.221 35.9185 268.297 34.9817 270.298C34.0236 272.374 32.512 273.896 30.0529 273.492C28.8181 273.29 28.7968 273.992 28.4455 274.663C26.3378 278.697 25.2732 279.198 21.0152 277.963C20.0677 277.686 19.7697 278.314 19.2374 278.708C16.2887 280.88 13.819 280.071 12.829 276.526C12.4564 275.174 12.1903 274.365 10.37 274.269C8.16639 274.152 6.81445 272.502 6.62284 270.149C6.36735 267.073 7.1551 264.177 8.10252 261.303C9.65672 256.598 11.2641 251.914 12.7864 247.198C13.0419 246.411 13.489 245.58 12.9993 244.516C11.5622 245.602 10.2954 246.836 8.67736 247.518C4.29154 249.349 0.0760345 247.039 0.182487 242.866C0.193132 242.344 0.0334536 241.663 0.555069 241.386C3.98283 239.608 5.63283 236.021 8.53898 233.69C13.2335 229.921 18.6413 227.558 24.1449 225.365C25.3052 224.907 26.0929 224.3 26.6784 223.236C31.3091 214.933 34.1088 205.959 35.2159 196.612C36.8446 182.816 41.0814 170.063 48.6714 158.449C49.5656 157.076 50.1405 155.713 50.4172 154.095C51.7798 145.941 55.0905 138.543 59.5082 131.623C60.5089 130.058 60.9453 128.547 60.8282 126.663C60.445 119.999 60.7431 113.409 62.8934 106.969C65.2141 100.018 69.9299 95.2486 76.1574 91.7676C82.6829 88.1269 89.9003 86.743 97.1178 85.3272C101.663 84.433 105.943 82.7937 109.637 79.8875C112.33 77.7691 113.809 75.044 113.256 71.5523C112.553 67.1026 113.118 62.5039 111.627 58.15C111.382 57.4261 111.414 56.5958 110.265 56.5213C108.476 56.4042 107.348 55.1481 106.667 53.6897C104.527 49.1122 103.111 44.3964 105.453 39.457C105.975 38.3499 105.74 33.5276 105.794 32.5483C106.156 25.5757 106.198 24.7453 107.071 20.3276C108.274 14.2917 110.02 8.92655 115.023 5.10492L115.012 5.15815ZM83.428 507.506C83.9284 507.75 85.589 508.485 87.5264 507.921C88.921 507.516 89.7619 506.622 90.0068 506.367C91.0287 505.313 91.6142 504.035 92.0081 502.673C92.2636 501.789 92.5297 501.065 93.4558 500.629C95.9468 499.447 96.8729 497.19 97.3626 494.667C97.6713 493.113 97.8949 491.527 98.3526 490.005C99.9813 484.512 103.941 480.956 108.444 477.784C112.351 475.038 113.958 471.056 113.149 466.415C112.245 461.263 111.468 456.1 111.042 450.894C110.307 441.984 109.434 433.01 111.521 424.175C113.82 414.424 115.768 404.63 116.854 394.677C118.057 383.638 118.44 372.588 116.034 361.634C115.789 360.538 116.024 359.537 116.237 358.505C117.908 350.553 119.377 342.569 120.452 334.51C121.879 323.812 122.762 313.018 124.966 302.447C127.531 290.109 128.138 277.718 127.041 265.21C126.978 264.433 127.073 263.613 127.201 262.836C127.563 260.611 128.83 259.291 131.15 259.366C133.663 259.451 134.238 261.271 134.365 263.358C134.504 265.646 133.918 267.893 133.908 270.139C133.876 276.771 134.121 283.403 134.855 290.013C135.813 298.647 137.995 307.078 138.975 315.7C140.454 328.719 142.051 341.717 144.755 354.545C145.223 356.78 146.245 359.048 145.766 361.315C142.413 377.166 144.297 392.878 147.033 408.537C148.215 415.329 150.173 422.003 151.089 428.816C152.526 439.621 151.291 450.447 149.333 461.061C147.81 469.289 148.779 475.708 156.582 480.403C161.117 483.139 163.714 487.94 164.161 493.262C164.672 499.298 170.485 501.864 172.326 506.92C172.443 507.239 173.039 507.41 173.444 507.591C173.593 507.655 174.391 508.006 175.392 508.091C177.159 508.229 178.575 507.42 179.033 507.133C182.599 506.037 185.367 504.653 187.283 503.556C187.283 503.556 189.454 502.311 193.776 498.297C194.096 497.999 194.713 497.414 194.969 496.477C195.288 495.253 194.756 494.135 194.5 493.518C191.466 486.226 186.985 479.828 181.609 474.197C172.135 464.275 167.962 452.608 168.089 439.025C168.185 428.784 170.293 418.788 171.176 408.644C172.518 393.197 173.912 377.762 172.507 362.22C171.485 350.925 172.635 339.769 174.998 328.698C176.031 323.886 178.532 319.65 180.033 315.04C184.291 301.989 183.717 288.757 180.651 275.674C176.606 258.386 173.678 240.981 172.528 223.247C172.177 217.786 171.506 212.293 169.09 207.236C168.632 206.267 168.803 205.331 169.016 204.383C169.601 201.828 169.505 199.295 169.037 196.74C166.652 183.678 167.099 170.808 172.039 158.332C173.582 154.447 174.572 150.306 176.946 146.431C179.182 153.233 182.343 159.152 185.718 164.975C186.506 166.337 187.528 167.572 187.666 169.265C188.752 182.635 194.468 194.196 201.664 205.192C205.103 210.44 209.148 215.241 212.459 220.596C216.749 227.526 220.059 234.456 220.059 243.004C220.059 252.595 225.329 260.856 228.714 269.564C229.118 270.607 229.959 271.906 231.258 271.405C232.567 270.895 232.163 269.383 231.886 268.318C231.013 264.976 230.002 261.676 229.076 258.354C228.927 257.812 228.458 257.034 229.257 256.768C230.066 256.492 230.215 257.354 230.385 257.918C231.833 262.613 233.259 267.318 234.696 272.023C235.346 274.131 236.112 277.239 238.529 276.494C240.913 275.759 239.764 272.683 239.199 270.596C238.082 266.413 236.836 262.251 235.676 258.078C235.484 257.396 234.824 256.396 236.07 256.119C237.06 255.895 237.081 256.96 237.209 257.577C238.114 262.08 240.03 266.296 240.828 270.863C241.116 272.534 241.626 274.439 242.819 275.919C243.596 276.877 244.33 278.165 245.767 277.707C247.151 277.26 247.194 275.781 247.247 274.567C247.29 273.705 247.066 272.811 246.832 271.959C246.151 269.489 245.427 267.02 244.66 264.571C243.628 261.282 242.542 258.003 241.488 254.724C241.296 254.128 241.094 253.383 241.85 253.117C242.648 252.83 242.872 253.607 243.064 254.171C243.511 255.512 243.851 256.896 244.32 258.227C245.693 262.144 246.63 266.221 248.503 269.947C249.142 271.214 249.823 272.608 251.686 272.034C253.517 271.469 253.272 269.915 253.251 268.51C253.219 266.807 252.698 265.199 252.176 263.603C249.919 256.619 247.652 249.636 245.437 242.642C245.246 242.046 244.533 241.301 245.278 240.737C245.853 240.3 246.662 240.609 247.322 240.843C248.674 241.322 249.791 242.11 250.76 243.228C252.389 245.101 254.337 246.389 257.019 245.963C258.308 245.761 259.074 244.952 259.51 243.834C259.989 242.632 258.744 242.429 258.19 241.844C257.648 241.269 256.945 240.822 256.477 240.194C251.707 233.839 245.118 230.283 237.752 227.867C236.006 227.292 234.409 226.44 233.43 224.588C228.895 216.05 225.808 207.013 224.584 197.464C223.04 185.392 219.868 173.938 213.683 163.357C212.15 160.738 209.936 158.492 209.446 155.224C208.201 146.974 204.869 139.501 200.355 132.528C199.259 130.835 198.801 129.132 198.929 127.067C199.131 123.895 199.163 120.68 198.875 117.508C198.12 109.045 195.607 101.38 188.337 96.0789C182.854 92.0869 176.637 89.8514 170.059 88.6379C163.352 87.3924 156.593 86.4556 151.11 81.8569C148.438 79.6214 146.309 77.0559 146.448 73.3514C146.607 69.1039 146.426 64.7394 147.406 60.6623C147.949 58.3948 146.703 53.7961 151.824 54.2858C152.09 54.3071 152.42 53.9239 152.675 53.6897C154.708 51.7735 156.433 43.6406 154.911 41.3519C153.899 39.8296 154.219 38.6267 154.506 37.1683C155.443 32.3034 155.049 28.535 153.729 22.8398C153.293 20.945 153.016 19.4014 152.909 17.5279C152.611 12.2266 149.833 7.74494 144.723 5.63718C135.781 1.9433 127.212 2.74169 125.743 2.98653C122.23 3.56137 120.346 3.87008 118.11 5.20073C110.084 9.98043 108.774 21.3708 108.497 23.7127C107.891 28.9395 108.412 36.1251 106.72 41.7032C106.667 41.8948 106.358 42.427 106.347 43.2148C106.315 46.5361 107.082 49.7084 108.338 52.7529C108.742 53.7322 109.754 54.6477 110.541 54.3922C113.256 53.53 113 55.5632 113.511 57.011C114.352 59.3848 114.629 61.8226 114.65 64.3136C114.672 66.3255 114.778 68.3162 115.044 70.3388C115.417 73.2662 115.449 76.4172 113.448 78.9295C110.052 83.2088 105.389 85.6359 100.205 86.9027C93.7752 88.4782 87.1326 89.1489 80.9583 91.7782C71.1222 95.9831 64.8096 102.892 63.3937 113.846C62.8083 118.359 62.606 122.852 62.8934 127.365C63.0105 129.143 62.5634 130.569 61.616 132.06C57.8582 137.978 54.8243 144.217 53.1424 151.093C52.4185 154.042 52.2908 157.108 50.4066 159.854C43.3807 170.095 39.2398 181.517 37.7388 193.834C36.653 202.776 34.2259 211.335 30.8088 219.627C29.0949 223.789 26.9871 227.302 21.9839 228.569C17.9068 229.602 14.2448 231.976 10.7745 234.488C7.9322 236.542 6.17574 239.619 3.54637 241.876C2.92895 242.408 1.84314 242.759 2.34346 243.941C2.81185 245.037 3.50379 245.868 4.84509 246.017C7.28284 246.283 9.16704 245.335 10.6893 243.536C11.8603 242.152 13.2122 241.056 15.0432 240.683C16.3951 240.407 17.0232 240.502 16.4377 242.238C14.2555 248.689 12.2116 255.182 10.157 261.676C9.32672 264.284 8.4751 266.913 8.62414 269.713C8.68801 270.831 8.91156 271.874 10.2422 272.129C11.4664 272.364 12.3074 271.767 12.8396 270.735C13.3613 269.713 13.8084 268.648 14.2448 267.595C16.0013 263.336 16.5868 258.684 18.6413 254.533C18.9287 253.958 18.8755 252.808 19.7803 253.106C20.8235 253.447 20.2381 254.458 20.0252 255.182C18.3858 260.782 16.7145 266.37 15.0751 271.97C14.4577 274.056 13.8722 276.26 16.0864 277.729C17.1935 278.463 19.1948 276.164 19.9719 273.449C21.4942 268.18 23.0271 262.911 24.592 257.652C24.7729 257.034 24.7836 255.959 25.6991 256.151C26.7103 256.364 26.1674 257.29 26.0078 257.918C25.1881 261.09 24.379 264.263 23.4955 267.414C22.8036 269.894 22.1755 272.374 22.2181 274.972C22.2181 275.653 22.2926 276.483 23.1016 276.728C23.8361 276.952 24.5068 276.579 25.0178 276.068C26.3697 274.695 26.9445 272.906 27.4768 271.129C28.6478 267.243 29.7123 263.326 30.9365 259.451C31.2452 258.482 31.2133 257.194 32.5013 256.566C32.991 257.407 32.6823 258.035 32.5013 258.706C31.5752 262.123 30.6597 265.54 29.7868 268.978C29.5633 269.841 29.4355 270.873 30.4042 271.342C31.5646 271.895 32.1713 270.969 32.6717 270.107C32.9804 269.575 33.3104 269.042 33.5446 268.467C35.2797 264.305 36.951 260.111 38.7075 255.959C40.8685 250.828 42.1246 245.442 41.9543 239.928C41.7946 234.584 43.8172 230.198 46.255 225.695C50.8218 217.253 57.2727 210.11 62.2334 201.945C67.4602 193.344 72.1015 184.434 73.3151 174.342C73.8686 169.776 75.3057 165.848 77.637 162.058C78.329 160.93 78.8612 159.705 79.5425 158.577C81.7993 154.83 83.1513 150.657 84.9822 146.346C86.8984 150.614 88.261 154.628 89.7726 158.588C94.2116 170.233 95.2655 182.135 92.9874 194.355C92.3168 197.954 91.7952 201.53 92.849 205.139C93.1152 206.065 92.7745 206.842 92.4765 207.694C90.4539 213.496 89.2084 219.446 88.9848 225.61C88.591 236.617 86.7493 247.443 84.9184 258.269C83.2045 268.457 79.468 278.24 79.1274 288.715C78.8825 296.177 78.808 303.575 80.5432 310.899C81.6503 315.572 83.9603 319.788 85.44 324.312C89.3148 336.192 89.8045 348.456 89.2616 360.825C89.0168 366.489 88.7719 372.162 88.7613 377.826C88.74 395.412 91.2097 412.795 93.1578 430.221C94.4032 441.388 93.7752 452.321 88.6442 462.636C85.919 468.118 81.5332 472.291 77.7754 476.964C73.8367 481.872 70.2067 486.992 67.5347 492.719C67.226 493.379 66.4702 494.753 66.8002 496.36C66.8002 496.36 67.0131 497.425 67.8434 498.425C69.3444 500.246 75.1886 503.705 83.428 507.516V507.506Z" fill="#626262"/>
    <g id="quadriceps" class="muscle-group">
        <path d="M164.119 302.052C164.279 317.988 161.745 333.413 155.539 348.157C154.985 349.477 154.368 350.733 153.367 351.776C151.675 353.533 150.291 353.416 149.258 351.223C148.098 348.732 147.321 346.081 146.938 343.356C144.862 328.836 143.02 314.284 141.477 299.689C140.37 289.225 139.103 278.782 137.911 268.339C137.187 262.069 138.294 256.374 142.935 251.711C145.682 248.954 148.268 246.048 151.419 243.727C154.421 241.502 156.039 241.95 157.306 245.569C158.871 250.019 159.286 254.724 160.063 259.333C162.448 273.47 164.034 287.703 164.13 302.063L164.119 302.052Z" fill="#7A7C8A"/>
        <path d="M97.8948 302.872C97.7884 283.253 100.545 265.444 103.909 247.698C103.995 247.262 104.165 246.857 104.293 246.431C105.804 241.524 107.422 241.119 111.318 244.462C114.821 247.464 118.057 250.689 120.931 254.309C123.699 257.8 124.476 261.856 124.103 266.061C123.358 274.332 122.347 282.582 121.378 290.833C120.026 302.415 118.674 314.007 117.227 325.578C116.258 333.286 115.651 341.057 113.554 348.593C113.416 349.104 113.298 349.637 113.086 350.105C112.532 351.308 112.064 352.724 110.52 352.883C108.817 353.054 108.061 351.659 107.401 350.414C104.463 344.9 102.887 338.906 101.28 332.934C98.491 322.598 97.7032 312.038 97.9055 302.862L97.8948 302.872Z" fill="#7A7C8A"/>
        <path d="M83.1836 295.165C83.0558 284.275 85.3126 273.747 88.0804 263.304C90.1455 255.512 91.4017 247.581 92.2107 239.566C92.4981 236.67 92.413 233.711 93.371 230.922C94.3185 228.175 95.2978 227.962 97.4694 229.921C100.78 232.891 102.036 236.67 101.185 240.96C99.0662 251.627 97.2565 262.336 95.7662 273.109C93.9459 286.33 92.381 299.594 92.381 312.986C92.381 314.838 92.2639 316.701 92.0085 318.532C91.8807 319.426 91.7636 320.618 90.5926 320.874C89.3259 321.15 88.9639 319.979 88.5168 319.181C85.2062 313.39 83.6733 307.067 83.1942 300.467C83.0665 298.71 83.1729 296.933 83.1729 295.155L83.1836 295.165Z" fill="#7A7C8A"/>
        <path d="M169.271 309.355C168.952 296.102 167.494 282.306 165.311 268.574C163.842 259.323 162.246 250.083 160.628 240.853C159.808 236.212 161.405 232.561 164.726 229.431C166.376 227.888 167.387 228.558 168.154 230.261C169.197 232.582 169.016 235.137 169.271 237.575C170.474 249.029 172.859 260.249 175.595 271.426C178.746 284.328 180.215 297.39 176.808 310.516C176.106 313.23 174.871 315.828 173.764 318.425C173.295 319.543 172.603 320.991 171.251 320.788C170.049 320.607 169.985 319.053 169.719 317.946C169.101 315.327 169.282 312.666 169.271 309.355Z" fill="#7A7C8A"/>
    </g>
    <g id="chest" class="muscle-group">
        <path d="M128.319 135.051C128.319 139.565 128.425 144.089 128.287 148.592C128.159 152.711 125.625 154.478 121.889 153.02C111.733 149.049 102.451 143.684 95.0097 135.53C91.6565 131.847 88.8887 127.759 86.9726 123.128C85.94 120.605 86.3551 118.551 88.6651 116.848C97.1174 110.61 106.475 107.437 116.992 108.821C123.869 109.726 128.116 114.804 128.308 121.766C128.425 126.194 128.329 130.623 128.329 135.051C128.329 135.051 128.319 135.051 128.308 135.051H128.319Z" fill="#33B175"/>
        <path d="M133.61 134.933C133.61 130.952 133.61 126.971 133.61 122.989C133.642 113.994 138.922 108.693 147.96 108.597C157.306 108.501 165.684 111.365 173.167 116.911C175.147 118.38 175.595 120.275 174.828 122.542C173.221 127.322 170.378 131.357 167.068 135.05C159.648 143.322 150.344 148.804 140.093 152.785C135.867 154.425 133.674 152.796 133.631 148.197C133.589 143.779 133.631 139.351 133.631 134.933H133.621H133.61Z" fill="#33B175"/>
    </g>
    <g id="calves" class="muscle-group">
        <path d="M167.675 380.625C168.069 396.401 166.6 412.061 163.534 427.549C163.246 429.018 162.725 430.445 162.235 431.861C161.916 432.776 161.511 433.745 160.287 433.745C159.105 433.745 158.616 432.829 158.254 431.924C157.381 429.71 156.348 427.517 155.763 425.218C152.899 413.891 150.93 402.405 149.525 390.802C148.46 382.052 148.918 373.535 151.728 365.126C153.485 359.867 156.018 355.045 159.031 350.446C159.968 349.02 161.33 347.859 163.214 348.104C165.131 348.36 165.642 350.063 166.057 351.574C167.174 355.609 167.355 359.793 167.59 363.923C167.898 369.48 167.664 375.058 167.664 380.636L167.675 380.625Z" fill="#7A7C8A"/>
        <path d="M93.7123 380.508C93.5313 371.385 94.3191 362.305 95.373 353.256C95.4581 352.564 95.5965 351.851 95.8307 351.191C96.3417 349.754 96.9378 348.264 98.7049 348.072C100.355 347.891 101.537 348.828 102.452 350.148C106.731 356.312 109.712 363.018 111.49 370.331C113.395 378.145 112.842 385.948 111.884 393.783C110.766 402.916 109.212 411.965 107.093 420.917C106.242 424.526 105.305 428.135 103.74 431.52C103.272 432.553 102.708 433.798 101.366 433.713C100.025 433.628 99.5885 432.34 99.2478 431.254C97.5339 425.921 96.7675 420.385 96.0436 414.882C94.5426 403.481 93.4888 392.037 93.7017 380.508H93.7123Z" fill="#7A7C8A"/>
    </g>
    <g id="abs" class="muscle-group">
        <path d="M151.728 223.789C152.292 217.977 152.91 212.175 153.421 206.353C154.304 196.272 154.017 186.159 153.655 176.078C153.378 168.317 154.815 160.961 157.593 153.808C159.903 147.868 163.331 142.652 168.058 138.319C170.261 136.296 171.262 136.424 172.763 139.043C174.328 141.768 174.392 144.621 173.029 147.431C166.727 160.514 163.906 174.385 164.098 188.831C164.162 193.663 165.237 198.464 165.183 203.372C165.088 213.155 160.563 221.181 155.379 228.974C154.921 229.655 154.379 230.283 153.442 230.091C152.473 229.9 152.377 229.059 152.164 228.282C151.781 226.802 151.739 225.312 151.717 223.789H151.728Z" fill="#7A7C8A"/>
        <path d="M108.232 176.078C107.54 185.456 107.795 194.824 108.147 204.202C108.381 210.589 109.414 216.87 110.063 223.193C110.233 224.822 109.999 226.376 109.712 227.931C109.552 228.782 109.307 229.783 108.338 230.06C107.316 230.347 106.731 229.474 106.188 228.803C104.517 226.728 103.356 224.332 102.026 222.033C96.6287 212.708 95.5535 202.723 97.3845 192.28C98.6087 185.265 97.3206 178.356 96.2667 171.458C94.968 163.027 92.4877 154.926 88.7725 147.219C87.4951 144.568 87.6441 141.907 88.8896 139.277C90.1564 136.605 91.6467 136.254 93.7864 138.287C98.3425 142.599 101.898 147.666 104.144 153.52C106.933 160.759 108.636 168.232 108.232 176.078Z" fill="#7A7C8A"/>
        <path d="M113.288 222.012C113.49 220.138 112.745 218.02 114.544 216.944C116.492 215.784 117.716 217.892 119.196 218.658C120.516 219.35 121.708 220.287 123.007 221.032C128.702 224.3 134.29 224.034 139.762 220.479C141.391 219.414 142.966 218.275 144.638 217.274C146.777 215.997 148.193 216.689 148.534 219.191C148.864 221.586 148.459 223.96 148.065 226.312C146.745 234.168 145.436 242.035 140.667 248.763C140.614 248.837 140.582 248.923 140.529 248.986C133.503 258.109 126.935 257.024 120.824 248.316C115.321 240.47 114.118 231.156 113.277 222.001L113.288 222.012Z" fill="#7A7C8A"/>
        <path d="M129.479 170.414C129.479 172.362 129.532 174.31 129.468 176.247C129.372 179.068 128.18 180.037 125.444 179.771C122.453 179.473 119.462 179.249 116.47 178.972C113.681 178.706 112.723 177.663 112.787 174.885C112.883 170.712 112.457 166.603 111.563 162.526C110.85 159.268 112.031 158.289 115.289 159.183C118.695 160.12 122.134 160.865 125.71 160.95C128.627 161.014 129.426 161.929 129.468 164.846C129.5 166.698 129.468 168.561 129.468 170.414H129.479Z" fill="#7A7C8A"/>
        <path d="M132.471 170.34C132.471 168.306 132.513 166.273 132.46 164.251C132.396 162.164 133.439 161.014 135.419 160.972C139.518 160.876 143.456 160.078 147.363 158.917C149.46 158.289 150.631 159.152 150.216 161.291C149.279 166.177 149.024 171.074 149.056 176.035C149.077 178.026 147.395 178.685 145.777 178.888C142.371 179.314 138.943 179.612 135.504 179.846C133.567 179.974 132.534 178.866 132.481 176.972C132.417 174.768 132.471 172.554 132.471 170.35V170.34Z" fill="#7A7C8A"/>
        <path d="M129.384 190.789C129.49 197.453 130.576 198.028 122.901 197.208C120.272 196.92 117.61 196.899 114.97 196.686C113.086 196.537 111.862 195.59 111.617 193.578C111.245 190.576 111.255 187.585 111.638 184.593C111.873 182.73 112.873 181.783 114.875 181.943C118.483 182.241 122.103 182.432 125.711 182.688C128.245 182.869 129.586 184.125 129.395 186.807C129.299 188.127 129.384 189.458 129.384 190.789Z" fill="#7A7C8A"/>
        <path d="M132.417 190.491C132.545 185.545 135.136 182.887 140.188 182.518C142.477 182.347 144.777 182.145 147.065 181.964C149.013 181.815 150.152 182.709 150.206 184.668C150.27 187.5 150.291 190.342 150.174 193.163C150.089 195.143 149.12 196.516 146.938 196.665C142.967 196.942 139.007 197.261 135.036 197.496C133.344 197.602 132.354 196.857 132.428 194.994C132.492 193.493 132.439 191.981 132.439 190.48L132.417 190.491Z" fill="#7A7C8A"/>
        <path d="M132.513 213.166C132.513 209.812 132.513 206.459 132.513 203.106C132.513 201.307 133.258 200.317 135.175 200.232C138.964 200.061 142.754 199.763 146.544 199.604C149.184 199.487 150.323 200.849 149.546 203.393C148.172 207.918 145.405 211.569 141.785 214.518C139.88 216.072 137.889 217.551 135.526 218.446C133.003 219.404 132.322 219.01 132.183 216.349C132.13 215.295 132.183 214.23 132.183 213.166C132.3 213.166 132.407 213.166 132.524 213.166H132.513Z" fill="#7A7C8A"/>
        <path d="M129.554 209.993C129.554 212.292 129.522 214.591 129.554 216.901C129.586 218.754 128.713 219.392 127.063 218.711C119.931 215.741 114.8 210.759 112.256 203.382C111.361 200.806 112.458 199.497 115.236 199.614C119.037 199.773 122.826 200.05 126.627 200.252C128.447 200.348 129.394 201.264 129.394 203.095C129.394 205.394 129.394 207.693 129.394 210.003C129.448 210.003 129.49 210.003 129.543 210.003L129.554 209.993Z" fill="#7A7C8A"/>
    </g>
    <g id="shoulders" class="muscle-group">
        <path d="M99.0454 92.8535C108.317 93.1622 117.302 94.429 125.957 97.548C126.755 97.8355 127.926 97.9526 127.83 99.0597C127.734 100.071 126.627 100.263 125.765 100.433C119.25 101.657 112.693 102.636 106.305 104.51C93.0947 108.396 81.0976 114.25 72.2514 125.3C71.1656 126.663 69.7711 128.355 67.9082 127.791C65.843 127.163 66.2369 124.853 66.2795 123.192C66.4604 116.135 67.4398 109.258 71.8256 103.36C76.3392 97.2926 82.6305 94.4077 89.8905 93.4177C92.9457 93.0025 96.0648 93.0345 99.0454 92.8642V92.8535Z" fill="#7A7C8A"/>
        <path d="M195.469 121.809C195.469 122.607 195.48 123.406 195.469 124.193C195.448 125.62 195.575 127.28 193.904 127.791C192.403 128.249 191.168 127.142 190.242 126.099C188.358 123.991 186.548 121.841 184.472 119.903C175.062 111.121 163.661 106.448 151.376 103.435C146.735 102.296 142.051 101.434 137.325 100.774C136.633 100.678 135.952 100.454 135.281 100.231C134.621 100.018 133.78 99.837 133.759 98.9748C133.737 98.0593 134.674 97.9848 135.292 97.7612C141.444 95.4299 147.842 94.0247 154.368 93.4286C162.394 92.6835 170.463 92.2576 178.266 94.9402C186.282 97.6974 191.477 103.201 193.83 111.355C194.809 114.762 195.597 118.211 195.48 121.798L195.469 121.809Z" fill="#7A7C8A"/>
    </g>
    <g id="forearms" class="muscle-group">
        <path d="M58.1889 182.571C57.9653 194.217 56.3366 204.863 49.332 213.932C45.5956 218.765 40.9436 222.512 35.3549 225.035C34.5565 225.397 33.6091 225.812 32.8639 225.131C32.0868 224.418 32.4807 223.396 32.8852 222.661C38.6017 212.282 40.2623 200.871 41.7207 189.342C42.9449 179.633 46.9901 170.883 52.302 162.707C52.7704 161.984 53.2175 161.057 54.3033 161.281C55.304 161.483 55.5808 162.409 55.9108 163.229C57.2521 166.572 57.1563 170.17 57.614 173.651C58.0292 176.802 58.0398 179.995 58.1995 182.561L58.1889 182.571Z" fill="#7A7C8A"/>
        <path d="M207.775 161.259C208.712 161.355 209.031 162.122 209.468 162.782C215.876 172.394 219.741 182.922 220.816 194.43C221.667 203.595 223.818 212.378 227.863 220.681C228.555 222.097 230.205 224.013 228.853 225.205C227.469 226.419 225.595 224.747 224.126 223.906C213.077 217.636 206.966 208.002 204.763 195.601C202.932 185.328 203.666 175.141 205.391 164.975C205.838 162.356 206.658 161.195 207.775 161.259Z" fill="#7A7C8A"/>
        <path d="M71.9528 168.971C71.7481 179.162 67.8362 188.061 62.6733 196.518C62.2298 197.251 61.6157 198.205 60.7401 197.961C59.6825 197.67 60.0236 196.507 60.1715 195.704C61.5475 188.433 61.3655 181.081 61.1949 173.74C61.104 169.657 65.4253 164.015 69.3145 163.096C70.8725 162.724 71.7481 163.457 71.9187 164.922C72.0779 166.26 71.9528 167.621 71.9528 168.971Z" fill="#33B175"/>
        <path d="M200.729 180.666C200.41 185.744 201.101 190.374 201.751 195.005C201.868 195.867 202.453 197.155 201.187 197.538C200.197 197.837 199.781 196.698 199.324 195.963C194.257 187.649 190.371 178.952 190.616 168.914C190.701 165.571 192.117 164.687 194.938 166.518C198.6 168.903 201.698 171.703 200.761 176.812C200.505 178.175 200.718 179.633 200.718 180.666H200.729Z" fill="#33B175"/>
    </g>
    <g id="biceps" class="muscle-group">
        <path d="M203.634 151.732C203.858 154.606 203.293 157.384 202.218 159.992C200.994 162.962 198.567 163.846 195.703 162.462C190.849 160.109 187.549 155.979 184.388 151.849C180.183 146.356 176.436 140.533 174.977 133.613C174.115 129.558 175.786 127.886 179.842 128.493C182.908 128.94 185.963 129.707 189.029 129.749C193.926 129.813 196.608 132.623 198.61 136.509C201.111 141.352 203.57 145.685 203.645 151.732H203.634Z" fill="#7A7C8A"/>
        <path d="M58.0505 152.392C58.4337 144.876 61.606 138.457 65.9386 132.507C67.1628 130.814 69.0576 130.292 71.0376 130.026C74.7102 129.537 78.3828 129.026 82.0554 128.493C85.8664 127.94 87.5696 129.696 86.7925 133.529C85.4725 140.001 82.0128 145.451 78.3083 150.742C75.9664 154.074 73.1986 157.055 70.2286 159.854C68.9725 161.036 67.5673 161.909 66.045 162.601C63.4582 163.772 61.0737 162.909 59.8176 160.365C58.5934 157.864 57.9759 155.213 58.0505 152.392Z" fill="#7A7C8A"/>
    </g>
   <g id="grip" class="muscle-group">
       <path d="M221.763 239.523C221.763 239.64 221.763 239.278 221.763 238.927C221.689 231.39 227.086 227.175 234.463 229.08C238.679 230.166 242.649 231.901 246.343 234.232C247.291 234.828 248.121 235.584 248.025 236.734C247.919 238.011 246.716 238.427 245.694 238.544C243.267 238.82 242.937 240.343 243.235 242.291C243.469 243.77 243.799 245.24 244.108 246.709C244.385 248.039 244.331 249.274 242.82 249.764C238.189 251.254 233.569 252.83 228.619 252.798C224.691 252.776 223.211 251.467 222.455 247.645C221.955 245.112 221.849 242.557 221.742 239.523H221.763Z" fill="#7A7C8A"/>
       <path d="M40.188 239.076C40.2732 242.472 39.4322 245.751 38.8893 249.061C38.4315 251.84 36.2919 252.67 33.8009 252.776C30.0325 252.947 26.4344 251.989 22.847 250.988C22.5915 250.914 22.336 250.828 22.0911 250.754C18.8266 249.718 17.5811 247.564 18.3547 244.292C19.3127 240.226 19.1956 239.981 15.3208 238.342C13.1066 237.405 12.8937 236.106 14.9269 234.711C18.9721 231.933 23.4431 229.964 28.2334 228.952C31.6931 228.229 35.0251 229.165 37.7822 231.273C40.2838 233.189 40.1241 236.244 40.1986 239.076H40.188Z" fill="#7A7C8A"/>
   </g>
    <g id="neck" class="muscle-group">
        <path d="M145.501 72.6911C144.266 79.3763 148.609 83.0702 154.241 85.9338C154.943 86.2851 155.625 86.6896 156.359 86.9557C157.094 87.2112 157.338 87.8712 157.307 88.3822C157.253 89.1061 156.466 89.1167 155.848 89.2019C151.824 89.7341 147.811 90.2451 143.851 91.1606C140.998 91.8206 138.188 92.5232 135.612 93.9283C134.228 94.6841 133.461 94.269 133.089 92.8106C132.343 89.8299 132.45 86.8599 133.302 83.9218C133.493 83.2512 133.876 82.6444 134.526 82.2505C139.146 79.4402 141.711 75.1289 143.361 70.1469C143.585 69.4763 143.808 68.8056 144.117 68.1776C144.298 67.7943 144.617 67.3366 145.118 67.6027C145.341 67.7198 145.469 68.1669 145.48 68.4756C145.522 69.7105 145.501 70.9453 145.501 72.7018V72.6911Z" fill="#7A7C8A"/>
        <path d="M116.503 67.23C118.078 68.1348 118.036 69.3164 118.355 70.2532C119.962 74.8732 122.39 78.9078 126.509 81.7181C128.106 82.8039 128.99 84.2304 129 86.1465C129.011 88.1798 129.053 90.2236 128.851 92.2462C128.702 93.7365 127.968 94.8011 126.147 93.9069C119.909 90.8411 113.075 90.2662 106.358 89.2443C105.528 89.1165 104.293 89.4572 104.048 88.4246C103.75 87.1472 105.166 87.0514 105.953 86.6043C106.933 86.0401 108.008 85.6249 109.019 85.1033C113.735 82.623 116.865 79.142 116.513 73.3829C116.396 71.4668 116.492 69.5293 116.492 67.23H116.503Z" fill="#7A7C8A"/>
    </g>
</svg>
