<svg width="31" height="30" viewBox="0 0 31 30" fill="none" xmlns="http://www.w3.org/2000/svg">
<path d="M8.39106 12.39V9.75802C8.39106 8.90297 9.08422 8.20981 9.93927 8.20981H21.8605C22.7155 8.20981 23.4087 8.90297 23.4087 9.75802V12.39M8.39106 12.39H7.2041V16.1057H9.57802V12.39H8.39106ZM23.4087 12.39H22.2217V16.1057H24.5956V12.39H23.4087ZM13.6034 21.9889V6.86803C13.6034 6.01298 14.2965 5.31982 15.1516 5.31982H16.8546C17.7096 5.31982 18.4028 6.01298 18.4028 6.86803V21.9889M18.4028 21.9889H10.3005C10.0155 21.9889 9.78445 22.2199 9.78445 22.5049V24.2596C9.78445 24.5446 10.0155 24.7756 10.3005 24.7756H21.7057C21.9907 24.7756 22.2217 24.5446 22.2217 24.2596V22.5049C22.2217 22.2199 21.9907 21.9889 21.7057 21.9889H18.4028Z" stroke="white" stroke-width="1.63685" stroke-linecap="round" stroke-linejoin="round"/>
<path d="M12.6748 18.6343H19.2289" stroke="white" stroke-width="1.63685" stroke-linecap="round" stroke-linejoin="round"/>
</svg>
