<svg width="30" height="30" viewBox="0 0 30 30" fill="none" xmlns="http://www.w3.org/2000/svg">
<path d="M6.58301 18.8026V18.6837C6.58301 18.4331 6.58301 18.3078 6.60217 18.1858C6.61919 18.0774 6.64742 17.9711 6.68641 17.8686C6.73033 17.7531 6.79248 17.6443 6.91679 17.4268L9.74967 12.4692M6.58301 18.8026C6.58301 20.5515 8.00077 21.9692 9.74967 21.9692C11.4986 21.9692 12.9163 20.5515 12.9163 18.8026M6.58301 18.8026V18.6442C6.58301 18.4226 6.58301 18.3117 6.62615 18.227C6.6641 18.1526 6.72466 18.092 6.79914 18.054C6.88381 18.0109 6.99465 18.0109 7.21634 18.0109H12.283C12.5047 18.0109 12.6155 18.0109 12.7002 18.054C12.7747 18.092 12.8352 18.1526 12.8732 18.227C12.9163 18.3117 12.9163 18.4226 12.9163 18.6442V18.8026M9.74967 12.4692L12.5826 17.4268C12.7069 17.6443 12.769 17.7531 12.8129 17.8686C12.8519 17.9711 12.8802 18.0774 12.8972 18.1858C12.9163 18.3078 12.9163 18.4331 12.9163 18.6837V18.8026M9.74967 12.4692L19.2497 10.8859M16.083 17.2192V17.1003C16.083 16.8498 16.083 16.7245 16.1022 16.6025C16.1192 16.4941 16.1474 16.3878 16.1864 16.2852C16.2303 16.1698 16.2925 16.061 16.4168 15.8434L19.2497 10.8859M16.083 17.2192C16.083 18.9681 17.5008 20.3859 19.2497 20.3859C20.9986 20.3859 22.4163 18.9681 22.4163 17.2192M16.083 17.2192V17.0609C16.083 16.8392 16.083 16.7284 16.1262 16.6437C16.1641 16.5692 16.2247 16.5087 16.2991 16.4707C16.3838 16.4276 16.4947 16.4276 16.7163 16.4276H21.783C22.0047 16.4276 22.1155 16.4276 22.2002 16.4707C22.2747 16.5087 22.3352 16.5692 22.3732 16.6437C22.4163 16.7284 22.4163 16.8392 22.4163 17.0609V17.2192M19.2497 10.8859L22.0826 15.8434C22.2069 16.061 22.269 16.1698 22.3129 16.2852C22.3519 16.3878 22.3802 16.4941 22.3972 16.6025C22.4163 16.7245 22.4163 16.8498 22.4163 17.1003V17.2192M14.4997 7.71924V11.6776" stroke="white" stroke-width="1.58333" stroke-linecap="round" stroke-linejoin="round"/>
</svg>
