<svg width="30" height="30" viewBox="0 0 30 30" fill="none" xmlns="http://www.w3.org/2000/svg">
<path fill-rule="evenodd" clip-rule="evenodd" d="M20.6652 16.6376C20.6652 13.817 18.3483 11.5223 15.5002 11.5223C12.6522 11.5223 10.3352 13.817 10.3352 16.6376C10.3352 19.4582 12.6522 21.7529 15.5002 21.7529C18.3483 21.7529 20.6652 19.4582 20.6652 16.6376M11.5465 11.0349C12.668 10.2567 14.0301 9.79554 15.5003 9.79554C16.974 9.79554 18.3388 10.2584 19.4619 11.0409C19.3643 10.4372 18.7704 7.93527 15.5003 7.93527C12.3261 7.93527 11.6721 10.3215 11.5465 11.0349M22.409 16.6377C22.409 20.4109 19.3098 23.4802 15.4999 23.4802C11.69 23.4802 8.59082 20.4109 8.59082 16.6377C8.59082 15.2196 9.02858 13.9017 9.77765 12.8074V11.157C9.92764 9.39693 11.3124 6.20752 15.4999 6.20752C19.6874 6.20752 21.0722 9.39693 21.2187 11.0827L21.2222 12.8074C21.9712 13.9008 22.409 15.2196 22.409 16.6377M19.1224 17.5018C18.641 17.5018 18.2503 17.1148 18.2503 16.6381C18.2503 15.9118 17.9634 15.2287 17.4437 14.7139C16.9231 14.1984 16.2333 13.9142 15.5 13.9142C15.0186 13.9142 14.6279 13.5273 14.6279 13.0506C14.6279 12.5739 15.0186 12.1869 15.5 12.1869C16.699 12.1869 17.8274 12.6507 18.6768 13.4919C19.5261 14.3331 19.9944 15.4506 19.9944 16.6381C19.9944 17.1148 19.6037 17.5018 19.1224 17.5018" fill="white"/>
<mask id="mask0_1068_6640" style="mask-type:luminance" maskUnits="userSpaceOnUse" x="8" y="6" width="15" height="18">
<path fill-rule="evenodd" clip-rule="evenodd" d="M20.6652 16.6376C20.6652 13.817 18.3483 11.5223 15.5002 11.5223C12.6522 11.5223 10.3352 13.817 10.3352 16.6376C10.3352 19.4582 12.6522 21.7529 15.5002 21.7529C18.3483 21.7529 20.6652 19.4582 20.6652 16.6376M11.5465 11.0349C12.668 10.2567 14.0301 9.79554 15.5003 9.79554C16.974 9.79554 18.3388 10.2584 19.4619 11.0409C19.3643 10.4372 18.7704 7.93527 15.5003 7.93527C12.3261 7.93527 11.6721 10.3215 11.5465 11.0349M22.409 16.6377C22.409 20.4109 19.3098 23.4802 15.4999 23.4802C11.69 23.4802 8.59082 20.4109 8.59082 16.6377C8.59082 15.2196 9.02858 13.9017 9.77765 12.8074V11.157C9.92764 9.39693 11.3124 6.20752 15.4999 6.20752C19.6874 6.20752 21.0722 9.39693 21.2187 11.0827L21.2222 12.8074C21.9712 13.9008 22.409 15.2196 22.409 16.6377M19.1224 17.5018C18.641 17.5018 18.2503 17.1148 18.2503 16.6381C18.2503 15.9118 17.9634 15.2287 17.4437 14.7139C16.9231 14.1984 16.2333 13.9142 15.5 13.9142C15.0186 13.9142 14.6279 13.5273 14.6279 13.0506C14.6279 12.5739 15.0186 12.1869 15.5 12.1869C16.699 12.1869 17.8274 12.6507 18.6768 13.4919C19.5261 14.3331 19.9944 15.4506 19.9944 16.6381C19.9944 17.1148 19.6037 17.5018 19.1224 17.5018" fill="white"/>
</mask>
<g mask="url(#mask0_1068_6640)">
</g>
</svg>
